<svg xmlns="http://www.w3.org/2000/svg" viewBox="0 0 64 64" width="1024" height="1024" role="img" aria-label="Braidcast">
  <defs>
    <linearGradient id="tile" x1="0" y1="0" x2="0" y2="1">
      <stop offset="0" stop-color="#1a1e24"/><stop offset="1" stop-color="#0d1014"/>
    </linearGradient>
  </defs>
  <rect x="1" y="1" width="62" height="62" rx="14" fill="url(#tile)" stroke="#2a2f36" stroke-width="1"/>
  <g transform="translate(32 32) scale(0.66) translate(-32 -32)">
    <g fill="none" stroke-width="6.5" stroke-linecap="round">
      <path d="M32,9 C33.1,9.5 36.9,10.9 38.4,11.9 C39.9,12.9 41.0,13.9 41,14.8 C41.0,15.8 39.9,16.7 38.4,17.6 C36.9,18.6 34.1,19.5 32,20.5 C29.9,21.5 27.1,22.4 25.6,23.4 C24.1,24.4 23.0,25.4 23,26.3 C23.0,27.3 24.1,28.2 25.6,29.1 C27.1,30.1 29.9,31.0 32,32 C34.1,33.0 36.9,33.9 38.4,34.9 C39.9,35.9 41.0,36.8 41,37.8 C41.0,38.8 39.9,39.6 38.4,40.6 C36.9,41.6 34.1,42.5 32,43.5 C29.9,44.5 27.1,45.4 25.6,46.4 C24.1,47.4 23.0,48.3 23,49.3 C23.0,50.3 24.1,51.1 25.6,52.1 C27.1,53.1 30.9,54.5 32,55" stroke="#ffcb6b"/>
      <path d="M32,9 C30.9,9.5 27.1,10.9 25.6,11.9 C24.1,12.9 23.0,13.9 23,14.8 C23.0,15.8 24.1,16.7 25.6,17.6 C27.1,18.6 29.9,19.5 32,20.5 C34.1,21.5 36.9,22.4 38.4,23.4 C39.9,24.4 41.0,25.4 41,26.3 C41.0,27.3 39.9,28.2 38.4,29.1 C36.9,30.1 34.1,31.0 32,32 C29.9,33.0 27.1,33.9 25.6,34.9 C24.1,35.9 23.0,36.8 23,37.8 C23.0,38.8 24.1,39.6 25.6,40.6 C27.1,41.6 29.9,42.5 32,43.5 C34.1,44.5 36.9,45.4 38.4,46.4 C39.9,47.4 41.0,48.3 41,49.3 C41.0,50.3 39.9,51.1 38.4,52.1 C36.9,53.1 33.1,54.5 32,55" stroke="#f5a623"/>
    </g>
  </g>
</svg>
